<svg width="38" height="37" viewBox="0 0 38 37" fill="none" xmlns="http://www.w3.org/2000/svg">
<g id="akar-icons:linkedin-v1-fill">
<path id="Vector" fill-rule="evenodd" clip-rule="evenodd" d="M2.21167 5.01193C2.21167 4.27761 2.50608 3.57336 3.03012 3.05412C3.55417 2.53488 4.26492 2.24317 5.00604 2.24317H32.8615C33.2288 2.24257 33.5926 2.31376 33.932 2.45266C34.2715 2.59155 34.58 2.79543 34.8398 3.05261C35.0997 3.30979 35.3058 3.61523 35.4463 3.95144C35.5869 4.28765 35.6591 4.64802 35.6589 5.01193V32.6122C35.6593 32.9762 35.5873 33.3367 35.4469 33.673C35.3066 34.0094 35.1007 34.315 34.841 34.5725C34.5813 34.8299 34.273 35.0341 33.9336 35.1734C33.5942 35.3126 33.2304 35.3842 32.863 35.384H5.00604C4.63895 35.384 4.27545 35.3123 3.93633 35.1731C3.5972 35.0338 3.28908 34.8297 3.02958 34.5725C2.77008 34.3152 2.56428 34.0098 2.42394 33.6737C2.2836 33.3376 2.21147 32.9774 2.21167 32.6137V5.01193ZM15.4507 14.8788H19.9798V17.1324C20.6335 15.8369 22.3059 14.671 24.819 14.671C29.6369 14.671 30.7787 17.2514 30.7787 21.986V30.7563H25.903V23.0646C25.903 20.3682 25.2492 18.8467 23.589 18.8467C21.2857 18.8467 20.3279 20.4872 20.3279 23.0646V30.7563H15.4507V14.8788ZM7.08889 30.5499H11.9661V14.671H7.08889V30.5484V30.5499ZM12.6639 9.49196C12.6731 9.90573 12.5988 10.3172 12.4454 10.7021C12.2919 11.087 12.0624 11.4377 11.7703 11.7335C11.4782 12.0294 11.1295 12.2645 10.7445 12.4249C10.3594 12.5854 9.94595 12.6681 9.52826 12.6681C9.11056 12.6681 8.69707 12.5854 8.31206 12.4249C7.92705 12.2645 7.57826 12.0294 7.28618 11.7335C6.99409 11.4377 6.76459 11.087 6.61114 10.7021C6.45769 10.3172 6.38338 9.90573 6.39258 9.49196C6.41063 8.67979 6.74892 7.90692 7.33501 7.33885C7.92109 6.77077 8.70838 6.45268 9.52826 6.45268C10.3481 6.45268 11.1354 6.77077 11.7215 7.33885C12.3076 7.90692 12.6459 8.67979 12.6639 9.49196Z" fill="#FFF9F8"/>
</g>
</svg>
