<svg width="25" height="25" viewBox="0 0 25 25" fill="none" xmlns="http://www.w3.org/2000/svg">
<g id="bi:arrow-return-left">
<path id="Vector" fill-rule="evenodd" clip-rule="evenodd" d="M22.6562 2.34375C22.8634 2.34375 23.0621 2.42606 23.2086 2.57257C23.3551 2.71909 23.4374 2.9178 23.4374 3.125V10.625C23.4374 11.138 23.3364 11.6459 23.1401 12.1199C22.9438 12.5938 22.656 13.0244 22.2933 13.3871C21.9306 13.7499 21.5 14.0376 21.026 14.2339C20.5521 14.4302 20.0442 14.5312 19.5312 14.5312H4.22962L9.45931 19.7594C9.606 19.9061 9.68842 20.105 9.68842 20.3125C9.68842 20.52 9.606 20.7189 9.45931 20.8656C9.31261 21.0123 9.11364 21.0947 8.90618 21.0947C8.69872 21.0947 8.49975 21.0123 8.35306 20.8656L1.79056 14.3031C1.7178 14.2306 1.66008 14.1443 1.62069 14.0494C1.58131 13.9545 1.56104 13.8528 1.56104 13.75C1.56104 13.6472 1.58131 13.5455 1.62069 13.4506C1.66008 13.3557 1.7178 13.2694 1.79056 13.1969L8.04056 6.94688C8.18725 6.80018 8.38622 6.71776 8.59368 6.71776C8.80114 6.71776 9.00011 6.80018 9.14681 6.94688C9.2935 7.09357 9.37592 7.29254 9.37592 7.5C9.37592 7.70746 9.2935 7.90643 9.14681 8.05312L4.22962 12.9688H19.5312C20.1528 12.9688 20.7489 12.7218 21.1885 12.2823C21.628 11.8427 21.8749 11.2466 21.8749 10.625V3.125C21.8749 2.9178 21.9572 2.71909 22.1038 2.57257C22.2503 2.42606 22.449 2.34375 22.6562 2.34375Z" fill="#111111"/>
</g>
</svg>
