<svg width="25" height="25" viewBox="0 0 25 25" fill="none" xmlns="http://www.w3.org/2000/svg">
<g id="bi:arrow-return-right">
<path id="Vector" fill-rule="evenodd" clip-rule="evenodd" d="M2.34375 2.34375C2.13655 2.34375 1.93784 2.42606 1.79132 2.57257C1.64481 2.71909 1.5625 2.9178 1.5625 3.125V10.625C1.5625 11.138 1.66354 11.6459 1.85985 12.1199C2.05615 12.5938 2.34389 13.0244 2.70661 13.3871C3.43918 14.1197 4.43275 14.5312 5.46875 14.5312H20.7703L15.5406 19.7594C15.3939 19.9061 15.3115 20.105 15.3115 20.3125C15.3115 20.52 15.3939 20.7189 15.5406 20.8656C15.6873 21.0123 15.8863 21.0947 16.0938 21.0947C16.3012 21.0947 16.5002 21.0123 16.6469 20.8656L23.2094 14.3031C23.2821 14.2306 23.3399 14.1443 23.3792 14.0494C23.4186 13.9545 23.4389 13.8528 23.4389 13.75C23.4389 13.6472 23.4186 13.5455 23.3792 13.4506C23.3399 13.3557 23.2821 13.2694 23.2094 13.1969L16.9594 6.94688C16.8127 6.80018 16.6137 6.71776 16.4062 6.71776C16.1988 6.71776 15.9998 6.80018 15.8531 6.94688C15.7064 7.09357 15.624 7.29254 15.624 7.5C15.624 7.70746 15.7064 7.90643 15.8531 8.05312L20.7703 12.9688H5.46875C4.84715 12.9688 4.25101 12.7218 3.81147 12.2823C3.37193 11.8427 3.125 11.2466 3.125 10.625V3.125C3.125 2.9178 3.04269 2.71909 2.89618 2.57257C2.74966 2.42606 2.55095 2.34375 2.34375 2.34375Z" fill="#111111"/>
</g>
</svg>
