<svg width="37" height="37" viewBox="0 0 37 37" fill="none" xmlns="http://www.w3.org/2000/svg">
<g id="brandico:facebook-rect" clip-path="url(#clip0_1253_3575)">
<path id="Vector" d="M6.66247 0.736328C2.97176 0.736328 0 3.68086 0 7.33776V30.2885C0 33.9454 2.97176 36.89 6.66247 36.89H19.2166V22.7561H15.4447V17.6675H19.2166V13.3201C19.2166 9.90445 21.4453 6.76834 26.5792 6.76834C28.6578 6.76834 30.1949 6.96606 30.1949 6.96606L30.074 11.718C30.074 11.718 28.5064 11.7033 26.7958 11.7033C24.9444 11.7033 24.6476 12.5485 24.6476 13.9517V17.6676H30.2211L29.9782 22.7562H24.6476V36.89H29.8254C33.5162 36.89 36.4879 33.9455 36.4879 30.2886V7.33779C36.4879 3.68089 33.5162 0.736364 29.8254 0.736364L6.66247 0.736328Z" fill="#FFF9F8"/>
</g>
<defs>
<clipPath id="clip0_1253_3575">
<rect width="36.4879" height="36.1536" fill="white" transform="translate(0 0.736816)"/>
</clipPath>
</defs>
</svg>
