<svg width="32" height="32" viewBox="0 0 32 32" fill="none" xmlns="http://www.w3.org/2000/svg">
<g id="eva:phone-call-fill">
<path id="Vector" d="M17.3333 10.6667C18.3942 10.6667 19.4116 11.0881 20.1618 11.8382C20.9119 12.5884 21.3333 13.6058 21.3333 14.6667C21.3333 15.0203 21.4738 15.3594 21.7239 15.6095C21.9739 15.8595 22.313 16 22.6667 16C23.0203 16 23.3594 15.8595 23.6095 15.6095C23.8595 15.3594 24 15.0203 24 14.6667C24 12.8986 23.2976 11.2029 22.0474 9.95262C20.7971 8.70238 19.1014 8 17.3333 8C16.9797 8 16.6406 8.14048 16.3905 8.39052C16.1405 8.64057 16 8.97971 16 9.33333C16 9.68696 16.1405 10.0261 16.3905 10.2761C16.6406 10.5262 16.9797 10.6667 17.3333 10.6667Z" fill="white"/>
<path id="Vector_2" d="M17.3334 5.33317C19.8088 5.33317 22.1827 6.3165 23.9331 8.06684C25.6834 9.81718 26.6667 12.1911 26.6667 14.6665C26.6667 15.0201 26.8072 15.3593 27.0573 15.6093C27.3073 15.8594 27.6465 15.9998 28.0001 15.9998C28.3537 15.9998 28.6928 15.8594 28.9429 15.6093C29.1929 15.3593 29.3334 15.0201 29.3334 14.6665C29.3334 11.4839 28.0691 8.43166 25.8187 6.18122C23.5683 3.93079 20.516 2.6665 17.3334 2.6665C16.9798 2.6665 16.6407 2.80698 16.3906 3.05703C16.1406 3.30708 16.0001 3.64622 16.0001 3.99984C16.0001 4.35346 16.1406 4.6926 16.3906 4.94265C16.6407 5.19269 16.9798 5.33317 17.3334 5.33317ZM29.0001 21.2132C28.9267 20.9991 28.8001 20.8073 28.6322 20.6556C28.4643 20.504 28.2605 20.3976 28.0401 20.3465L20.0401 18.5198C19.8229 18.4706 19.5969 18.4765 19.3826 18.5371C19.1684 18.5976 18.9727 18.7109 18.8134 18.8665C18.6267 19.0398 18.6134 19.0532 17.7467 20.7065C14.871 19.3814 12.5667 17.0676 11.2534 14.1865C12.9467 13.3332 12.9601 13.3332 13.1334 13.1332C13.289 12.9739 13.4023 12.7782 13.4628 12.5639C13.5234 12.3497 13.5293 12.1237 13.4801 11.9065L11.6534 3.99984C11.6023 3.77943 11.4959 3.57566 11.3443 3.40772C11.1927 3.23977 11.0008 3.11317 10.7867 3.03984C10.4754 2.92862 10.1538 2.84824 9.82675 2.79984C9.48975 2.7217 9.14586 2.67704 8.80008 2.6665C7.17342 2.6665 5.61338 3.31269 4.46316 4.46292C3.31294 5.61314 2.66675 7.17318 2.66675 8.79984C2.6738 14.2434 4.8394 19.4621 8.68861 23.3113C12.5378 27.1605 17.7565 29.3261 23.2001 29.3332C24.0055 29.3332 24.8031 29.1745 25.5472 28.8663C26.2913 28.5581 26.9675 28.1063 27.537 27.5368C28.1065 26.9672 28.5583 26.2911 28.8665 25.547C29.1748 24.8028 29.3334 24.0053 29.3334 23.1998C29.3338 22.8605 29.3071 22.5216 29.2534 22.1865C29.1974 21.8553 29.1126 21.5296 29.0001 21.2132Z" fill="white"/>
</g>
</svg>
