<svg width="37" height="37" viewBox="0 0 37 37" fill="none" xmlns="http://www.w3.org/2000/svg">
<path id="Vector" d="M18.6212 12.6446C15.2712 12.6446 12.5373 15.3217 12.5373 18.6023C12.5373 21.8828 15.2712 24.5599 18.6212 24.5599C21.9713 24.5599 24.7051 21.8828 24.7051 18.6023C24.7051 15.3217 21.9713 12.6446 18.6212 12.6446ZM36.8684 18.6023C36.8684 16.1352 36.8912 13.6904 36.7497 11.2278C36.6082 8.36738 35.9419 5.82877 33.8059 3.7371C31.6653 1.64096 29.0775 0.9929 26.1565 0.85435C23.6371 0.715799 21.1406 0.738146 18.6258 0.738146C16.1064 0.738146 13.6099 0.715799 11.0951 0.85435C8.17407 0.9929 5.58167 1.64543 3.44569 3.7371C1.30514 5.83324 0.643346 8.36738 0.501859 11.2278C0.360373 13.6949 0.383193 16.1396 0.383193 18.6023C0.383193 21.0649 0.360373 23.5141 0.501859 25.9767C0.643346 28.8371 1.3097 31.3758 3.44569 33.4674C5.58624 35.5636 8.17407 36.2116 11.0951 36.3502C13.6144 36.4887 16.111 36.4664 18.6258 36.4664C21.1452 36.4664 23.6417 36.4887 26.1565 36.3502C29.0775 36.2116 31.6699 35.5591 33.8059 33.4674C35.9464 31.3713 36.6082 28.8371 36.7497 25.9767C36.8958 23.5141 36.8684 21.0694 36.8684 18.6023ZM18.6212 27.769C13.441 27.769 9.26031 23.675 9.26031 18.6023C9.26031 13.5295 13.441 9.43556 18.6212 9.43556C23.8014 9.43556 27.9821 13.5295 27.9821 18.6023C27.9821 23.675 23.8014 27.769 18.6212 27.769ZM28.3655 11.201C27.156 11.201 26.1793 10.2445 26.1793 9.06013C26.1793 7.87575 27.156 6.9193 28.3655 6.9193C29.575 6.9193 30.5517 7.87575 30.5517 9.06013C30.5521 9.34137 30.4958 9.61992 30.386 9.87981C30.2763 10.1397 30.1153 10.3759 29.9122 10.5747C29.7091 10.7736 29.468 10.9313 29.2026 11.0387C28.9372 11.1462 28.6527 11.2013 28.3655 11.201Z" fill="#FFF9F8"/>
</svg>
